<?xml version="1.0" encoding="UTF-8" standalone="no"?><!DOCTYPE svg PUBLIC "-//W3C//DTD SVG 1.1//EN" "http://www.w3.org/Graphics/SVG/1.1/DTD/svg11.dtd"><svg width="100%" height="100%" viewBox="0 0 1024 1024" version="1.1" xmlns="http://www.w3.org/2000/svg" xmlns:xlink="http://www.w3.org/1999/xlink" xml:space="preserve" xmlns:serif="http://www.serif.com/" style="fill-rule:evenodd;clip-rule:evenodd;stroke-linecap:round;stroke-linejoin:round;stroke-miterlimit:1.5;"><path id="箱" d="M512,97.678l358.813,207.161l0,414.322l-358.813,207.161l-358.813,-207.161l-0,-414.322l358.813,-207.161Z" style="fill:#fff;"/><clipPath id="_clip1"><path d="M512,97.678l358.813,207.161l0,414.322l-358.813,207.161l-358.813,-207.161l-0,-414.322l358.813,-207.161Z"/></clipPath><g clip-path="url(#_clip1)"><path d="M546.742,-418.006l-35,-20.207l-428.813,247.575l0,495.151l428.813,247.576l428.814,-247.576l-0,-495.151l-393.814,-227.368Zm-35,60.622l358.814,207.161l-0,414.322l-358.814,207.161l-358.813,-207.161l0,-414.322l358.813,-207.161Z" style="fill:#03bd7c;"/><rect x="475.373" y="512" width="70" height="424.477" style="fill:#03bd7c;"/><path id="境界線補助" d="M512,97.678l358.813,207.161l0,414.322l-358.813,207.161l-358.813,-207.161l-0,-414.322l358.813,-207.161Z" style="fill:none;stroke:#03bd7c;stroke-width:2px;"/><path id="テープ" d="M685.771,142.976l-383.058,221.159l35,60.622l383.058,-221.159l-35,-60.622Z" style="fill:#03bd7c;"/><path id="テープはみ出し部分" d="M347.314,411.96c-0,-19.317 -15.683,-35 -35,-35c-19.317,0 -35,15.683 -35,35l-0,45.136c-0,19.317 15.683,35 35,35c19.317,0 35,-15.683 35,-35l-0,-45.136Z" style="fill:#03bd7c;"/></g><path d="M546.5,37.922c-21.349,-12.325 -47.651,-12.325 -69,0l-358.813,207.161c-21.349,12.326 -34.5,35.105 -34.5,59.756l-0,414.322c-0,24.651 13.151,47.43 34.5,59.756l358.813,207.161c21.349,12.325 47.651,12.325 69,-0l358.813,-207.161c21.349,-12.326 34.5,-35.105 34.5,-59.756l0,-414.322c0,-24.651 -13.151,-47.43 -34.5,-59.756l-358.813,-207.161Zm-34.5,59.756l358.813,207.161l0,414.322l-358.813,207.161l-358.813,-207.161l-0,-414.322l358.813,-207.161Z" style="fill:#03bd7c;"/><g id="AL"><path d="M180.005,664.802l25.618,-221.719l89.964,51.941l25.165,251.039l-50.18,-28.972l-3.768,-40.339l-31.947,-18.445l-3.315,36.25l-51.537,-29.755Zm58.62,-42.081l24.11,13.921l-11.603,-126.97l-2.411,-1.392l-10.096,114.441Z" style="fill:#03bd7c;fill-rule:nonzero;"/><path d="M337.027,755.459l0,-236.51l53.045,30.625l-0,196.196l54.551,31.495l-0,40.314l-107.596,-62.12Z" style="fill:#03bd7c;fill-rule:nonzero;"/></g><g id="COM"><path d="M611.398,803.867c-9.946,5.742 -17.953,4.898 -24.02,-2.535c-6.068,-7.433 -9.101,-20.981 -9.101,-40.647l-0,-111.926c-0,-23.525 2.643,-43.062 7.929,-58.611c5.286,-15.55 13.892,-26.767 25.817,-33.652c6.51,-3.759 12.304,-4.99 17.381,-3.695c5.078,1.296 9.075,5.306 11.991,12.031c2.917,6.724 4.375,16.473 4.375,29.246l-0,41.904l-27.341,15.785l-0,-35.839c-0,-7.259 -0.521,-11.852 -1.562,-13.778c-1.042,-1.925 -2.656,-2.257 -4.844,-0.994c-2.551,1.473 -4.27,4.097 -5.155,7.87c-0.886,3.773 -1.328,8.371 -1.328,13.793l-0,121.437c-0,6.708 0.559,11.118 1.679,13.228c1.12,2.11 2.721,2.564 4.804,1.361c2.344,-1.353 3.997,-4.007 4.961,-7.964c0.963,-3.956 1.445,-8.645 1.445,-14.067l-0,-43.695l27.653,-15.966l0,45.901c0,21.32 -3.046,38.54 -9.139,51.66c-6.094,13.121 -14.608,22.838 -25.545,29.153Z" style="fill:#03bd7c;fill-rule:nonzero;"/><path d="M688.031,759.623c-10.989,6.344 -19.386,5.334 -25.193,-3.03c-5.806,-8.364 -8.71,-23.619 -8.71,-45.765l0,-115.235c0,-20.768 2.878,-38.189 8.632,-52.263c5.755,-14.074 14.178,-24.313 25.271,-30.717c11.092,-6.405 19.516,-5.892 25.271,1.537c5.754,7.429 8.632,21.528 8.632,42.296l-0,115.234c-0,22.147 -2.904,40.754 -8.71,55.823c-5.807,15.069 -14.205,25.776 -25.193,32.12Zm0.234,-44.796c4.166,-2.405 6.25,-10.73 6.25,-24.973l-0,-118.405c-0,-11.946 -2.031,-16.747 -6.094,-14.402c-4.582,2.646 -6.874,10.08 -6.874,22.302l0,118.267c0,7.536 0.521,12.634 1.563,15.294c1.041,2.661 2.76,3.3 5.155,1.917Z" style="fill:#03bd7c;fill-rule:nonzero;"/><path d="M733.026,731.439l0,-242.599l41.871,-24.174l11.561,141.228l11.483,-154.533l42.261,-24.399l0,242.599l-25.153,14.523l-0,-174.782l-15.78,183.892l-24.685,14.252l-16.717,-165.13l0,174.781l-24.841,14.342Z" style="fill:#03bd7c;fill-rule:nonzero;"/></g></svg>