<?xml version="1.0" encoding="utf-8"?>
<svg viewBox="0 0 1024 1024" xmlns="http://www.w3.org/2000/svg">
  <path d="M 546.513 37.944 C 525.164 25.619 498.862 25.619 477.513 37.944 L 118.7 245.105 C 97.351 257.431 84.2 280.21 84.2 304.861 L 84.2 719.183 C 84.2 743.834 97.351 766.613 118.7 778.939 L 477.513 986.1 C 498.862 998.425 525.164 998.425 546.513 986.1 L 905.326 778.939 C 926.675 766.613 939.826 743.834 939.826 719.183 L 939.826 304.861 C 939.826 280.21 926.675 257.431 905.326 245.105 L 546.513 37.944 Z M 512.013 97.7 L 870.826 304.861 L 870.826 719.183 L 512.013 926.344 L 153.2 719.183 L 153.2 304.861 L 512.013 97.7 Z" style="fill:#03bd7c;" transform="matrix(1, 0, 0, 1, 2.842170943040401e-14, 0)"/>
  <path id="箱" d="M 512.013 97.7 L 870.826 304.861 L 870.826 719.183 L 512.013 926.344 L 153.2 719.183 L 153.2 304.861 L 512.013 97.7 Z" style="fill:#fff;" transform="matrix(1, 0, 0, 1, 2.842170943040401e-14, 0)"/>
  <text style="fill: rgb(3, 189, 124); font-family: Arial, sans-serif; font-size: 150px; text-anchor: middle; white-space: pre;" transform="matrix(1, 0, 0, 1, 465.2700500488281, 219.08416748046878)"><tspan x="45.168" y="191.176">PLACE</tspan><tspan x="45.168" dy="1em">​</tspan><tspan>HOLDER</tspan><tspan x="45.168" dy="1em">​</tspan><tspan>ICON</tspan></text>
</svg>