<?xml version="1.0" encoding="UTF-8" standalone="no"?>
<!DOCTYPE svg PUBLIC "-//W3C//DTD SVG 1.1//EN" "http://www.w3.org/Graphics/SVG/1.1/DTD/svg11.dtd">
<svg width="100%" height="100%" viewBox="0 0 1024 1024" version="1.1" xmlns="http://www.w3.org/2000/svg" xmlns:xlink="http://www.w3.org/1999/xlink" xml:space="preserve" xmlns:serif="http://www.serif.com/" style="fill-rule:evenodd;clip-rule:evenodd;stroke-linecap:round;stroke-linejoin:round;stroke-miterlimit:1.5;">
    <g id="箱" transform="matrix(1,0,0,1,-77.7091,-38.8174)">
        <path d="M589.709,136.495L948.522,343.656L948.522,757.978L589.709,965.139L230.896,757.978L230.896,343.656L589.709,136.495Z" style="fill:white;"/>
        <clipPath id="_clip1">
            <path d="M589.709,136.495L948.522,343.656L948.522,757.978L589.709,965.139L230.896,757.978L230.896,343.656L589.709,136.495Z"/>
        </clipPath>
        <g clip-path="url(#_clip1)">
            <g transform="matrix(1,0,0,1,-0.257668,-455.062)">
                <path d="M624.709,75.874L589.709,55.666L160.896,303.242L160.896,798.393L589.709,1045.97L1018.52,798.393L1018.52,303.242L624.709,75.874ZM589.709,136.495L948.522,343.656L948.522,757.978L589.709,965.139L230.896,757.978L230.896,343.656L589.709,136.495Z" style="fill:rgb(3,189,124);"/>
            </g>
            <g transform="matrix(0.956595,0,0,1.14321,73.0769,-136.521)">
                <rect x="501.785" y="601.233" width="73.176" height="371.301" style="fill:rgb(3,189,124);"/>
            </g>
            <path id="境界線補助" d="M589.709,136.495L948.522,343.656L948.522,757.978L589.709,965.139L230.896,757.978L230.896,343.656L589.709,136.495Z" style="fill:none;stroke:rgb(3,189,124);stroke-width:2px;"/>
            <g id="テープ" transform="matrix(1.00776,-0.581833,0.341035,0.590689,875.521,-85.7293)">
                <rect x="-578.439" y="257.541" width="380.107" height="102.629" style="fill:rgb(3,189,124);"/>
            </g>
            <g id="テープはみ出し部分" transform="matrix(1.29229,-1.11022e-16,1.2326e-32,1.10078,279.856,277.434)">
                <path d="M112.333,157.474C112.333,139.925 100.197,125.678 85.249,125.678C70.301,125.678 58.166,139.925 58.166,157.474L58.166,198.478C58.166,216.026 70.301,230.273 85.249,230.273C100.197,230.273 112.333,216.026 112.333,198.478L112.333,157.474Z" style="fill:rgb(3,189,124);"/>
            </g>
        </g>
        <path d="M624.209,76.74C602.86,64.414 576.558,64.414 555.209,76.74L196.396,283.901C175.047,296.226 161.896,319.005 161.896,343.656L161.896,757.978C161.896,782.63 175.047,805.408 196.396,817.734L555.209,1024.89C576.558,1037.22 602.86,1037.22 624.209,1024.89L983.022,817.734C1004.37,805.408 1017.52,782.63 1017.52,757.978L1017.52,343.656C1017.52,319.005 1004.37,296.226 983.022,283.901L624.209,76.74ZM589.709,136.495L948.522,343.656L948.522,757.978L589.709,965.139L230.896,757.978L230.896,343.656L589.709,136.495Z" style="fill:rgb(3,189,124);"/>
    </g>
    <g transform="matrix(0.791334,0.456877,-1.34479e-17,0.70567,210.718,551.801)">
        <g id="AL">
            <text x="-44.525px" y="185.26px" style="font-family:'Anton-Regular', 'Anton';font-size:390px;fill:rgb(3,189,124);">AL</text>
        </g>
    </g>
    <g transform="matrix(0.500841,-0.289161,3.21789e-17,0.883757,524.081,438.516)">
        <g id="COM">
            <text x="98.228px" y="467.954px" style="font-family:'Anton-Regular', 'Anton';font-size:319.429px;fill:rgb(3,189,124);">COM</text>
        </g>
    </g>
</svg>
